<svg xmlns="http://www.w3.org/2000/svg" width="92" height="20" viewBox="0 0 92 20"><defs><clipPath id="nwnia"><path fill="#fff" d="M2.999-.092h13.994a2.999 2.999 0 0 1 2.998 2.998v13.992a2.999 2.999 0 0 1-2.998 2.998H2.999a2.999 2.999 0 0 1-3-2.998V2.906A2.999 2.999 0 0 1 3-.092z"/></clipPath><clipPath id="nwnib"><path fill="#fff" d="M38.999.001h13.994A2.999 2.999 0 0 1 55.99 3v13.992a2.998 2.998 0 0 1-2.998 2.998H38.999a2.998 2.998 0 0 1-3-2.998V3A2.999 2.999 0 0 1 39 0z"/></clipPath></defs><g><g><g><path fill="#fff" d="M2.999-.092h13.994a2.999 2.999 0 0 1 2.998 2.998v13.992a2.999 2.999 0 0 1-2.998 2.998H2.999a2.999 2.999 0 0 1-3-2.998V2.906A2.999 2.999 0 0 1 3-.092z"/><path fill="none" stroke="#435993" stroke-linecap="round" stroke-linejoin="round" stroke-miterlimit="50" stroke-width="2" d="M2.999-.092h13.994a2.999 2.999 0 0 1 2.998 2.998v13.992a2.999 2.999 0 0 1-2.998 2.998H2.999a2.999 2.999 0 0 1-3-2.998V2.906A2.999 2.999 0 0 1 3-.092z" clip-path="url(&quot;#nwnia&quot;)"/></g><g><g><path fill="#435993" d="M74.999.001h13.994A2.999 2.999 0 0 1 91.99 3v13.992a2.998 2.998 0 0 1-2.998 2.998H74.999a2.998 2.998 0 0 1-3-2.998V3A2.999 2.999 0 0 1 75 0z"/></g><g><path fill="#fff" d="M88.707 7.707l-7 7-.207-.207-.207.207-5-5 1.414-1.414 3.793 3.793 5.793-5.793z"/></g></g><g><g><path fill="#e9efff" d="M38.999.001h13.994A2.999 2.999 0 0 1 55.99 3v13.992a2.998 2.998 0 0 1-2.998 2.998H38.999a2.998 2.998 0 0 1-3-2.998V3A2.999 2.999 0 0 1 39 0z"/><path fill="none" stroke="#435993" stroke-linecap="round" stroke-linejoin="round" stroke-miterlimit="50" stroke-width="2" d="M38.999.001h13.994A2.999 2.999 0 0 1 55.99 3v13.992a2.998 2.998 0 0 1-2.998 2.998H38.999a2.998 2.998 0 0 1-3-2.998V3A2.999 2.999 0 0 1 39 0z" clip-path="url(&quot;#nwnib&quot;)"/></g></g></g></g></svg>